HIERARCHY
ROOT SpineBase
{
  OFFSET 0.000000 0.000000 0.000000
  CHANNELS 6 Xposition Yposition Zposition Zrotation Xrotation Yrotation
  JOINT SpineMid
  {
    OFFSET -0.000000 35.481629 0.000000
    CHANNELS 3 Zrotation Xrotation Yrotation
    JOINT SpineShoulder
    {
      OFFSET 0.064344 26.265898 -0.631201
      CHANNELS 3 Zrotation Xrotation Yrotation
      JOINT Neck
      {
        OFFSET 0.048257 8.659472 -0.538720
        CHANNELS 3 Zrotation Xrotation Yrotation
        JOINT Head
        {
          OFFSET 2.003929 9.644390 5.720111
          CHANNELS 3 Zrotation Xrotation Yrotation
          End Site
          {
            OFFSET 0 0 0
          }
        }
      }
      JOINT ShoulderLeft
      {
        OFFSET -1.240209 -4.933961 -8.857503
        CHANNELS 3 Zrotation Xrotation Yrotation
        JOINT ElbowLeft
        {
          OFFSET 5.306545 -20.565871 1.074714
          CHANNELS 3 Zrotation Xrotation Yrotation
          JOINT WristLeft
          {
            OFFSET -1.039473 -16.205014 8.520713
            CHANNELS 3 Zrotation Xrotation Yrotation
            JOINT HandLeft
            {
              OFFSET -1.836415 -8.191132 1.246859
              CHANNELS 3 Zrotation Xrotation Yrotation
              JOINT HandTipLeft
              {
                OFFSET 1.881978 -3.593116 1.262219
                CHANNELS 3 Zrotation Xrotation Yrotation
                End Site
                {
                  OFFSET 0 0 0
                }
              }
              JOINT ThumbLeft
              {
                OFFSET -0.677122 -1.534785 -4.705159
                CHANNELS 3 Zrotation Xrotation Yrotation
                End Site
                {
                  OFFSET 0 0 0
                }
              }
            }
          }
        }
      }
      JOINT ShoulderRight
      {
        OFFSET 11.665633 -6.842995 -13.161031
        CHANNELS 3 Zrotation Xrotation Yrotation
        JOINT ElbowRight
        {
          OFFSET 6.618465 -25.017256 0.380716
          CHANNELS 3 Zrotation Xrotation Yrotation
          JOINT WristRight
          {
            OFFSET 0.080574 -22.291319 11.515871
            CHANNELS 3 Zrotation Xrotation Yrotation
            JOINT HandRight
            {
              OFFSET -0.195585 -1.435868 1.817239
              CHANNELS 3 Zrotation Xrotation Yrotation
              JOINT HandTipRight
              {
                OFFSET 0.314261 0.325261 4.892181
                CHANNELS 3 Zrotation Xrotation Yrotation
                End Site
                {
                  OFFSET 0 0 0
                }
              }
              JOINT ThumbRight
              {
                OFFSET -0.339401 5.027543 0.617223
                CHANNELS 3 Zrotation Xrotation Yrotation
                End Site
                {
                  OFFSET 0 0 0
                }
              }
            }
          }
        }
      }
    }
  }
  JOINT HipLeft
  {
    OFFSET -6.740043 0.712311 -0.636004
    CHANNELS 3 Zrotation Xrotation Yrotation
    JOINT KneeLeft
    {
      OFFSET 1.061257 -33.910118 2.475467
      CHANNELS 3 Zrotation Xrotation Yrotation
      JOINT AnkleLeft
      {
        OFFSET -1.532350 -32.422850 3.752007
        CHANNELS 3 Zrotation Xrotation Yrotation
        JOINT FootLeft
        {
          OFFSET 7.400142 -5.376433 -4.993635
          CHANNELS 3 Zrotation Xrotation Yrotation
          End Site
          {
            OFFSET 0 0 0
          }
        }
      }
    }
  }
  JOINT HipRight
  {
    OFFSET 7.589961 1.110394 -6.830633
    CHANNELS 3 Zrotation Xrotation Yrotation
    JOINT KneeRight
    {
      OFFSET -2.589559 -33.860852 3.144625
      CHANNELS 3 Zrotation Xrotation Yrotation
      JOINT AnkleRight
      {
        OFFSET 2.448653 -32.111546 -0.794046
        CHANNELS 3 Zrotation Xrotation Yrotation
        JOINT FootRight
        {
          OFFSET -5.642657 -5.476737 3.447686
          CHANNELS 3 Zrotation Xrotation Yrotation
          End Site
          {
            OFFSET 0 0 0
          }
        }
      }
    }
  }
}
MOTION
Frames: 10
Frame Time: 0.033333
-38.244776 72.213187 318.146882 0.000000 0.000000 23.378048 -0.000000 0.000000 -23.378048 -0.000000 0.000000 0.000000 -0.000000 0.000000 0.000000 0.000000 0.000000 0.000000 -0.000000 0.000000 0.000000 -0.000000 0.000000 0.000000 -0.000000 0.000000 0.000000 -0.000000 0.000000 0.000000 0.000000 0.000000 0.000000 0.000000 0.000000 0.000000 -0.000000 0.000000 0.000000 -0.000000 0.000000 0.000000 -0.000000 0.000000 0.000000 -0.000000 0.000000 0.000000 0.000000 0.000000 0.000000 0.000000 0.000000 0.000000 -0.000000 0.000000 -23.378048 -0.000000 0.000000 0.000000 -0.000000 0.000000 0.000000 0.000000 0.000000 0.000000 -0.000000 0.000000 -23.378048 -0.000000 0.000000 0.000000 -0.000000 0.000000 0.000000 0.000000 0.000000 0.000000
-38.299740 72.176692 318.131415 0.081392 0.257869 24.020014 -0.179312 -0.202407 -24.020514 -0.000000 0.000000 0.000000 -0.000000 0.000000 0.000000 0.000000 0.000000 0.000000 8.463207 6.819665 1.672774 -7.934548 -6.067807 -2.219694 -0.446676 5.450338 -1.680206 2.008505 -7.502970 1.416424 0.000000 0.000000 0.000000 0.000000 0.000000 0.000000 -1.118346 0.046427 -0.004295 1.118349 -0.046334 0.005200 6.311138 1.783069 7.855994 -7.261745 -10.855477 -8.155163 0.000000 0.000000 0.000000 0.000000 0.000000 0.000000 -1.965034 -0.063983 -24.166664 3.297297 1.234785 0.264426 -1.614227 -0.622226 -0.165956 0.000000 0.000000 0.000000 0.182606 -1.129595 -23.897065 -0.706532 0.701056 -0.114919 2.128097 2.271192 -1.076680 0.000000 0.000000 0.000000
-38.359326 72.148775 318.117701 0.143697 0.486044 24.567112 -0.332772 -0.382298 -24.568832 -0.000000 0.000000 0.000000 -0.347582 0.997708 0.001857 0.000000 0.000000 0.000000 14.752364 12.023397 2.263327 -13.957794 -10.244056 -4.340928 -0.753567 10.120815 -3.204960 3.259964 -13.306768 2.975618 0.000000 0.000000 0.000000 0.000000 0.000000 0.000000 -2.050524 0.095617 -0.004221 2.050534 -0.095405 0.007640 12.457710 3.387076 15.725605 -16.977990 -17.712454 -16.828664 0.000000 0.000000 0.000000 0.000000 0.000000 0.000000 -3.548725 -0.071873 -24.837637 6.045939 2.192819 0.437482 -2.734026 -1.602916 -1.264802 0.000000 0.000000 0.000000 0.333941 -2.085622 -24.335146 -2.431216 1.077915 -0.169430 5.204541 4.536995 -2.214232 0.000000 0.000000 0.000000
-38.423535 72.129437 318.105739 0.186966 0.684650 25.019809 0.180856 0.045816 -25.014327 0.067977 0.039898 0.014501 -0.902241 0.542260 -0.013804 0.000000 0.000000 0.000000 18.768414 14.907356 2.594059 -18.200912 -12.922420 -6.010991 -1.020405 13.744101 -4.502849 4.215322 -17.635765 4.386321 0.000000 0.000000 0.000000 0.000000 0.000000 0.000000 -3.195507 -0.692847 -0.064112 2.795615 -0.147266 0.007140 17.571244 4.171618 22.435536 -25.860952 -19.624841 -23.958269 0.000000 0.000000 0.000000 0.000000 0.000000 0.000000 -4.758383 -0.044238 -25.387889 8.237930 2.862185 0.551432 -3.708130 -2.058718 -1.739125 0.000000 0.000000 0.000000 0.461854 -2.864480 -24.695806 -3.313864 1.319303 -0.226960 7.253555 6.508187 -3.306058 0.000000 0.000000 0.000000
-38.492366 72.118677 318.095530 0.211237 0.853797 25.378616 0.206590 0.035915 -25.372397 0.087993 0.043595 0.017372 -1.117140 0.680645 0.000863 0.000000 0.000000 0.000000 21.688854 17.206304 2.582140 -20.934171 -14.510438 -7.131075 -1.349103 16.154962 -5.505006 4.977770 -20.505771 5.495961 0.000000 0.000000 0.000000 0.000000 0.000000 0.000000 -3.824381 -0.813005 -0.078982 3.353208 -0.201959 0.003499 21.246934 3.661051 27.325241 -31.000057 -17.348104 -27.961865 0.000000 0.000000 0.000000 0.000000 0.000000 0.000000 -5.601727 0.002865 -25.816245 9.867693 3.236369 0.631741 -4.395328 -2.279742 -2.101666 0.000000 0.000000 0.000000 0.572895 -3.464018 -24.981811 -3.974255 1.359212 -0.278077 8.778568 8.166844 -4.284973 0.000000 0.000000 0.000000
-38.565820 72.116496 318.087074 0.216533 0.993575 25.644048 0.214802 0.014419 -25.637513 0.106742 0.042528 0.019242 -1.290108 0.799637 0.025791 0.000000 0.000000 0.000000 23.458222 18.561027 2.525899 -22.407890 -15.293481 -7.714139 -1.825919 17.264294 -6.156935 5.547986 -21.903370 6.205619 0.000000 0.000000 0.000000 0.000000 0.000000 0.000000 -4.234802 -0.878713 -0.084250 3.723247 -0.259506 -0.003508 23.502716 1.802611 30.318786 -31.506736 -11.565836 -28.961389 0.000000 0.000000 0.000000 0.000000 0.000000 0.000000 -6.085561 0.057754 -26.122536 10.931922 3.312476 0.696240 -4.782588 -2.263939 -2.349687 0.000000 0.000000 0.000000 0.672295 -3.883310 -25.195278 -4.412585 1.196724 -0.328359 9.673114 9.448653 -5.068014 0.000000 0.000000 0.000000
-38.675633 72.133545 318.073631 0.174802 1.123560 25.832013 0.175971 -0.045412 -25.826322 0.116133 0.028360 0.017996 -1.361914 0.983197 0.048908 0.000000 0.000000 0.000000 20.009391 16.070770 2.727566 -18.202281 -13.011365 -5.855827 -2.107818 14.954353 -5.820371 6.028379 -19.213113 6.502769 0.000000 0.000000 0.000000 0.000000 0.000000 0.000000 -4.624141 -0.776592 -0.053996 4.154103 -0.409071 -0.029853 24.686501 3.183758 31.883022 -29.027835 -2.203960 -30.056696 0.000000 0.000000 0.000000 0.000000 0.000000 0.000000 -5.351965 0.078715 -26.251636 9.925483 2.257765 0.732956 -3.919029 -1.360141 -2.274357 0.000000 0.000000 0.000000 0.765957 -4.125652 -25.356823 -4.522167 0.658958 -0.397264 9.283004 9.992343 -5.251081 0.000000 0.000000 0.000000
-38.761298 72.161840 318.063177 0.138920 1.214893 25.935638 0.134597 -0.097245 -25.930863 0.140253 0.029632 0.017756 -1.475002 0.973153 0.128160 0.000000 0.000000 0.000000 19.988940 15.949955 2.735978 -17.597482 -12.491190 -5.468365 -3.420790 12.942489 -5.719728 6.783416 -18.293168 5.929988 0.000000 0.000000 0.000000 0.000000 0.000000 0.000000 -4.630965 -0.739802 -0.035400 4.187209 -0.475362 -0.044203 25.200120 -3.970945 32.498050 -21.085939 13.511439 -30.778954 0.000000 0.000000 0.000000 0.000000 0.000000 0.000000 -5.137849 0.135826 -26.338499 9.951040 1.708143 0.792076 -3.662492 -0.742520 -2.260706 0.000000 0.000000 0.000000 0.868362 -4.169881 -25.454101 -4.523934 -0.064891 -0.462643 7.910531 9.647294 -4.765062 0.000000 0.000000 0.000000
-38.819285 72.197426 318.059123 0.100602 1.249023 25.915047 0.120660 -0.135072 -25.910561 0.170193 0.027131 0.018653 -1.744373 1.046945 0.275526 0.000000 0.000000 0.000000 19.619307 15.580666 2.733583 -16.368643 -11.524380 -4.763170 -4.851871 9.817212 -5.567765 6.715870 -15.128075 5.371204 0.000000 0.000000 0.000000 0.000000 0.000000 0.000000 -4.254422 -0.881304 -0.067417 3.815159 -0.323395 -0.016558 22.872086 -13.720850 29.560300 -7.884721 37.302704 -25.980465 0.000000 0.000000 0.000000 0.000000 0.000000 0.000000 -4.906016 0.215920 -26.298395 9.896123 1.212051 0.839462 -3.470542 -0.246838 -2.229122 0.000000 0.000000 0.000000 0.886631 -3.980812 -25.461125 -4.203177 -0.837344 -0.509198 6.852433 10.069067 -5.046831 0.000000 0.000000 0.000000
-38.895542 72.202869 318.072544 0.055049 1.246533 25.811726 0.087756 -0.171996 -25.808209 0.183781 -0.004280 0.017745 -1.728082 1.151762 0.293134 0.000000 0.000000 0.000000 20.669668 16.052850 2.655309 -17.254039 -11.725346 -4.976464 -5.886901 7.641652 -5.241044 5.258456 -10.726755 4.959052 0.000000 0.000000 0.000000 0.000000 0.000000 0.000000 -3.619428 -0.919926 -0.075079 3.225953 -0.202800 0.001156 20.367984 -16.620899 26.523615 -0.328570 49.645598 -26.552714 0.000000 0.000000 0.000000 0.000000 0.000000 0.000000 -4.595210 0.291224 -26.169271 9.698230 0.715452 0.874552 -3.279608 0.176206 -2.215854 0.000000 0.000000 0.000000 0.953237 -3.682831 -25.393160 -3.800207 -1.606581 -0.542382 5.801509 10.521181 -5.399048 0.000000 0.000000 0.000000
